<svg viewbox="0 0 298 97" xmlns="http://www.w3.org/2000/svg">
    <title>Stager</title>
    <desc>
        The Stager meerkat logo
    </desc>
    <path d="M134.2 36.5C132.6 34.4 129.3 33.4 126.8 33.4 123.9 33.4 119.9 34.7 119.9 38.2 119.9 46.6 141.2 41.2 141.2 57.5 141.2 67.8 132.9 72.8 123.3 72.8 117.3 72.8 112.1 71 107.7 67L115 59C117.1 61.8 120.5 63.4 123.9 63.4 127.2 63.4 131 61.8 131 58.6 131 50.1 109.3 54.7 109.3 39.2 109.3 29.3 117.9 24.1 127 24.1 132.2 24.1 137.3 25.5 141.2 28.9L134.2 36.5Z"></path>
    <path d="M164.6 47.6L156 47.6 156 58.2C156 61.6 156.4 64.1 160.6 64.1 161.6 64.1 163.7 64 164.6 63.2L164.6 71.4C162.4 72.2 160 72.4 157.7 72.4 151.2 72.4 146.1 69.7 146.1 62.8L146.1 47.6 139.8 47.6 139.8 39.7 146.1 39.7 146.1 30.3 155.9 30.3 155.9 39.7 164.5 39.7 164.5 47.6 164.6 47.6Z"></path>
    <path d="M187.8 67.6L187.7 67.6C185.5 71 181.6 72.4 177.6 72.4 171.6 72.4 166.3 69 166.3 62.6 166.3 51.6 179.7 51.4 187.8 51.4 187.8 47.9 184.9 45.7 181.5 45.7 178.3 45.7 175.6 47.1 173.5 49.5L168.3 44.1C171.9 40.7 177.1 39 182.3 39 193.8 39 196.8 44.8 196.8 55.4L196.8 71.6 187.8 71.6 187.8 67.6 187.8 67.6ZM185.4 57.6C182.4 57.6 175.7 57.9 175.7 62.2 175.7 64.6 178.2 65.7 180.3 65.7 184.2 65.7 187.8 63.7 187.8 59.7L187.8 57.6 185.4 57.6Z"></path>
    <path d="M234.1 68.9C234.1 80.9 228 87.3 215.7 87.3 210.1 87.3 204.3 86.3 199.7 82.7L205.1 74.6C208.1 77.2 211.5 78.7 215.4 78.7 221.4 78.7 224.2 75.4 224.2 70.9L224.2 67.8 224.1 67.8C221.9 70.9 218.1 72 215.1 72 205.7 72 199.4 65.2 199.4 55.6 199.4 47.2 204.9 39 213.9 39 219.5 39 223.3 41.7 224.8 44L224.9 44 224.9 39.8 233.9 39.8 233.9 68.9 234.1 68.9ZM217.3 63.3C221.8 63.3 225.2 59.6 225.2 55.4 225.2 51.3 221.8 47.5 217.3 47.5 212.8 47.5 209.4 51.2 209.4 55.4 209.4 59.6 212.8 63.3 217.3 63.3Z"></path>
    <path d="M268.1 65.4C265 69.4 259.8 71.7 254.7 71.7 244.9 71.7 237 65.2 237 55 237 44.8 244.9 38.3 254.7 38.3 263.9 38.3 269.6 44.8 269.6 55L269.6 58.1 246.8 58.1C247.6 61.8 250.4 64.3 254.2 64.3 257.4 64.3 259.6 62.7 261.2 60.4L268.1 65.4ZM259.8 51.4C259.9 48.1 257.3 45.4 253.8 45.4 249.5 45.4 247.1 48.3 246.9 51.4L259.8 51.4Z"></path>
    <path d="M272.4 39.7L282.2 39.7 282.2 44.8 282.3 44.8C284.4 40.9 287.1 38.9 291.5 38.9 292.6 38.9 293.9 39 294.8 39.2L294.8 48.2C293.4 47.8 292 47.5 290.6 47.5 283.1 47.5 282.2 51.8 282.2 58.2L282.2 71.5 272.4 71.5 272.4 39.7 272.4 39.7Z"></path>
    <path d="M292 59.9C295.3 59.9 298 62.6 298 65.9 298 69.2 295.3 71.9 292 71.9 288.7 71.9 286 69.2 286 65.9 286 62.6 288.7 59.9 292 59.9Z"></path>
    <path d="M48.7 97C22 97 0.4 75.3 0.4 48.7 0.4 22.1 22.1 0.4 48.7 0.4 75.3 0.4 97 22 97 48.6 97 75.2 75.3 97 48.7 97ZM48.7 6.8C25.6 6.8 6.9 25.6 6.9 48.6 6.9 71.6 25.7 90.4 48.7 90.4 71.7 90.4 90.5 71.6 90.5 48.6 90.5 25.6 71.7 6.8 48.7 6.8Z"></path>
    <path d="M59.1 39.6C63.7 20.2 54.7 21.4 49.6 21.4 44.5 21.4 43.6 21.9 38.9 24.9 34.2 27.9 32.2 26.7 31.3 27.7 30.4 28.6 31.3 31 35.5 32.9 38.9 34.1 38.9 34.2 44.6 35.1 44.6 35.1 47.9 34.8 47.9 40.6 47.2 52.7 40.2 63.7 37.5 70.4 34 79 34.7 81.6 34.7 81.6 34.7 81.6 35 82.3 35.5 81.5 35.9 80.7 38.2 75.4 42.1 72.5L42.1 72.5C41.2 73.6 37.1 79 36.4 89.6 36.4 89.6 42.2 91.7 47.1 91.3 51 90.9 59.4 90 59.4 90 59.4 90 59.4 90 59.2 89.3 56.6 83.3 53.8 62.5 59.1 39.6ZM44.1 26.6C43.4 26.6 42.8 26 42.8 25.3 42.8 24.6 43.4 24 44.1 24 44.8 24 45.4 24.6 45.4 25.3 45.3 26 44.8 26.6 44.1 26.6ZM53.8 29.3C52.5 30.9 53.2 23.9 53.2 23.9 53.2 23.9 55.4 23.1 55.6 24.3 55.8 25.4 55.8 26.9 53.8 29.3Z"></path>
</svg>