<svg id="Laag_1" data-name="Laag 1" xmlns="http://www.w3.org/2000/svg" viewBox="0 0 297.6 96.6">
    <defs>
        <style>
            .cls-1 {
                fill: #31b50;
            }
        </style>
    </defs>
    <title>Logo Stager</title>
    <path class="cls-1" d="M134.2,36.5c-1.6-2.1-4.9-3.1-7.4-3.1-2.9,0-6.9,1.3-6.9,4.8,0,8.4,21.3,3,21.3,19.3,0,10.3-8.3,15.3-17.9,15.3A22.25,22.25,0,0,1,107.7,67l7.3-8a11.22,11.22,0,0,0,8.9,4.4c3.3,0,7.1-1.6,7.1-4.8,0-8.5-21.7-3.9-21.7-19.4,0-9.9,8.6-15.1,17.7-15.1,5.2,0,10.3,1.4,14.2,4.8Z" transform="translate(-0.4 -0.4)" />
    <path class="cls-1" d="M164.6,47.6H156V58.2c0,3.4.4,5.9,4.6,5.9,1,0,3.1-.1,4-.9v8.2a20.25,20.25,0,0,1-6.9,1c-6.5,0-11.6-2.7-11.6-9.6V47.6h-6.3V39.7h6.3V30.3h9.8v9.4h8.6v7.9Z" transform="translate(-0.4 -0.4)" />
    <path class="cls-1" d="M187.8,67.6h-.1c-2.2,3.4-6.1,4.8-10.1,4.8-6,0-11.3-3.4-11.3-9.8,0-11,13.4-11.2,21.5-11.2,0-3.5-2.9-5.7-6.3-5.7a10.4,10.4,0,0,0-8,3.8l-5.2-5.4a20.47,20.47,0,0,1,14-5.1c11.5,0,14.5,5.8,14.5,16.4V71.6h-9v-4Zm-2.4-10c-3,0-9.7.3-9.7,4.6,0,2.4,2.5,3.5,4.6,3.5,3.9,0,7.5-2,7.5-6V57.6Z" transform="translate(-0.4 -0.4)" />
    <path class="cls-1" d="M234.1,68.9c0,12-6.1,18.4-18.4,18.4-5.6,0-11.4-1-16-4.6l5.4-8.1a15.42,15.42,0,0,0,10.3,4.1c6,0,8.8-3.3,8.8-7.8V67.8h-.1c-2.2,3.1-6,4.2-9,4.2-9.4,0-15.7-6.8-15.7-16.4,0-8.4,5.5-16.6,14.5-16.6,5.6,0,9.4,2.7,10.9,5h.1V39.8h9V68.9Zm-16.8-5.6a7.9,7.9,0,1,0-7.9-7.9A7.92,7.92,0,0,0,217.3,63.3Z" transform="translate(-0.4 -0.4)" />
    <path class="cls-1" d="M268.1,65.4a17.18,17.18,0,0,1-13.4,6.3c-9.8,0-17.7-6.5-17.7-16.7s7.9-16.7,17.7-16.7c9.2,0,14.9,6.5,14.9,16.7v3.1H246.8a7.42,7.42,0,0,0,7.4,6.2,8.2,8.2,0,0,0,7-3.9Zm-8.3-14a5.83,5.83,0,0,0-6-6c-4.3,0-6.7,2.9-6.9,6Z" transform="translate(-0.4 -0.4)" />
    <path class="cls-1" d="M272.4,39.7h9.8v5.1h.1c2.1-3.9,4.8-5.9,9.2-5.9a16.86,16.86,0,0,1,3.3.3v9a15.39,15.39,0,0,0-4.2-.7c-7.5,0-8.4,4.3-8.4,10.7V71.5h-9.8V39.7Z" transform="translate(-0.4 -0.4)" />
    <path class="cls-1" d="M292,59.9a6,6,0,1,1-6,6A6,6,0,0,1,292,59.9Z" transform="translate(-0.4 -0.4)" />
    <path class="cls-1" d="M48.7,97A48.3,48.3,0,1,1,97,48.6,48.33,48.33,0,0,1,48.7,97Zm0-90.2A41.8,41.8,0,1,0,90.5,48.6,41.85,41.85,0,0,0,48.7,6.8Z" transform="translate(-0.4 -0.4)" />
    <path class="cls-1" d="M59.1,39.6c4.6-19.4-4.4-18.2-9.5-18.2s-6,.5-10.7,3.5-6.7,1.8-7.6,2.8,0,3.3,4.2,5.2c3.4,1.2,3.4,1.3,9.1,2.2,0,0,3.3-.3,3.3,5.5-.7,12.1-7.7,23.1-10.4,29.8C34,79,34.7,81.6,34.7,81.6s.3.7.8-.1,2.7-6.1,6.6-9h0c-.9,1.1-5,6.5-5.7,17.1,0,0,5.8,2.1,10.7,1.7C51,90.9,59.4,90,59.4,90l-.2-.7C56.6,83.3,53.8,62.5,59.1,39.6Zm-15-13a1.3,1.3,0,1,1,1.3-1.3A1.4,1.4,0,0,1,44.1,26.6Zm9.7,2.7c-1.3,1.6-.6-5.4-.6-5.4s2.2-.8,2.4.4S55.8,26.9,53.8,29.3Z" transform="translate(-0.4 -0.4)" />
</svg>